# xmcd
#
# Track frame offsets:
#	150
#	16112
#	27780
#	43432
#	59325
#	77065
#	93887
#	107885
#	120857
#	138495
#	154225
#	171787
#	187825
#	199840
#
# Disc length: 2965 seconds
#
# Revision: 6
# Processed by: cddbd v1.5.2PL0 Copyright (c) Steve Scherf et al.
# Submitted via: audiograbber 1.83.01
#
DISCID=af0b930e
DTITLE=Various Artist - CDX 125
DYEAR=1995
DGENRE=Country
TTITLE0=Keith Stegall - 1969
TTITLE1=Dodie Petit - Easy Come, Easy Go
TTITLE2=Rich McCready - Hangin' On
TTITLE3=Jo Dee Messina - Heads Carolina, Tails California
TTITLE4=Alan Jackson - I'll Try
TTITLE5=Alabama - It Works
TTITLE6=Junior Brown - My Wife Thinks You're Dead
TTITLE7=Mandy Barnett - Now That's All Right With Me
TTITLE8=Travis Tritt - Only You (And You Alone)
TTITLE9=4 Runner - Ripples
TTITLE10=Chely Wright - The Love That We Lost
TTITLE11=Baker and Myers - Years From Here
TTITLE12=Neal McCoy - You Gotta Love That
TTITLE13=Lorrie Morgan - Standing Tall (Radio Feature)
EXTD=
EXTT0=
EXTT1=
EXTT2=
EXTT3=
EXTT4=
EXTT5=
EXTT6=
EXTT7=
EXTT8=
EXTT9=
EXTT10=
EXTT11=
EXTT12=
EXTT13=
PLAYORDER=
